<svg id="Layer_1" data-name="Layer 1" xmlns="http://www.w3.org/2000/svg" viewBox="0 0 2048 2048"><defs><style>.cls-1{fill:#00599d;}.cls-2{fill:#fffffe;}.cls-3{fill:none;}</style></defs><title>w3c</title><g id="Layer_1-2" data-name="Layer_1"><polygon class="cls-1" points="2020 1998.81 2020 49.19 2020 28 1998.81 28 49.19 28 28 28 28 49.19 28 1998.81 28 2020 49.19 2020 1998.81 2020 2020 2020 2020 1998.81"/><path class="cls-2" d="M674.9,1530.25l165-552.1,165,552.1,4.53,15.15h43.86l4.51-15.23L1311,675.81l4.28-7.29h160L1320.77,935.63l-2.89,10.59v80.36h70.58v.09q43.36,0,74.27,12.87,29.67,12.35,48.44,36.84l.08.08q16.66,21.49,25.11,52.22,8.75,31.86,8.75,74.41,0,38.48-8.19,70.45a208,208,0,0,1-24.37,58q-15.45,25-33.58,37a64.2,64.2,0,0,1-36.19,11,107.24,107.24,0,0,1-38.63-6.8,105.94,105.94,0,0,1-33-20.51H1371a174,174,0,0,1-29.23-34.56,255.53,255.53,0,0,1-23.83-46.9l-7.88-20.1-19.93,8.26-101.25,42-18.14,7.53,6.14,18.63q16.17,49.14,41.53,88.81a311.3,311.3,0,0,0,60,69.42,247.66,247.66,0,0,0,76.31,45q41.28,15.07,88.08,15.09,62.27,0,113.57-25.39,51.06-25.26,90.23-75.4h.09a348.81,348.81,0,0,0,57.61-110.12q19-60.26,19-131.42,0-57.39-13.1-108.12a348.17,348.17,0,0,0-39.47-94.2,270,270,0,0,0-66.29-74.67,285.25,285.25,0,0,0-66.52-38L1708,594.89l2.9-10.6V502.6H1188.53l-4.48,15.23-158.87,540L860.94,502.05l-144.54.57H688l8.12,27.23,57.5,192.92-99,335.16L495.85,517.83l-4.48-15.23H317.55l8,27.15L622,1530.17l4.51,15.23h43.88l4.52-15.15Z"/></g><rect class="cls-3" width="2048" height="2048"/></svg>